<svg xmlns="http://www.w3.org/2000/svg" viewBox="0 0 520 100" fill="white">
  <!-- C -->
  <path d="M42,50 C42,25 60,5 85,5 C98,5 108,10 115,18 L103,32 C98,26 92,22 85,22 C70,22 60,34 60,50 C60,66 70,78 85,78 C92,78 98,74 103,68 L115,82 C108,90 98,95 85,95 C60,95 42,75 42,50 Z"/>
  <!-- I -->
  <rect x="130" y="8" width="20" height="84"/>
  <!-- N -->
  <path d="M170,92 L170,8 L190,8 L230,62 L230,8 L250,8 L250,92 L230,92 L190,38 L190,92 Z"/>
  <!-- U -->
  <path d="M270,8 L270,60 C270,74 278,82 292,82 C306,82 314,74 314,60 L314,8 L334,8 L334,62 C334,82 316,97 292,97 C268,97 270,82 250,62 L250,8 Z" d="M270,8 L270,60 C270,76 278,84 292,84 C306,84 314,76 314,60 L314,8 L334,8 L334,62 C334,84 316,98 292,98 C268,98 250,84 250,62 L250,8 Z"/>
  <!-- K -->
  <path d="M350,8 L370,8 L370,44 L408,8 L434,8 L394,46 L436,92 L410,92 L370,48 L370,92 L350,92 Z"/>
  <!-- ® -->
  <circle cx="460" cy="18" r="12" fill="none" stroke="white" stroke-width="2.5"/>
  <text x="460" y="23" text-anchor="middle" font-size="16" font-weight="bold" font-family="Arial, sans-serif" fill="white">R</text>
</svg>
