<svg width="1280" height="247" viewBox="0 0 1280 247" fill="none" xmlns="http://www.w3.org/2000/svg">
<g clip-path="url(#clip0_165_79)">
<path d="M1279.52 28.3999C1279.52 20.9792 1276.57 13.8623 1271.32 8.61507C1266.08 3.36781 1258.96 0.419922 1251.54 0.419922C1244.12 0.419922 1237 3.36781 1231.76 8.61507C1226.51 13.8623 1223.56 20.9792 1223.56 28.3999C1223.56 35.8207 1226.51 42.9375 1231.76 48.1848C1237 53.432 1244.12 56.3799 1251.54 56.3799C1258.96 56.3799 1266.08 53.432 1271.32 48.1848C1276.57 42.9375 1279.52 35.8207 1279.52 28.3999Z" stroke="#0B0B0B" stroke-width="2"/>
<path d="M225.32 100.11C224.813 98.0831 224.037 95.8764 222.99 93.4897C207.18 57.5797 174.11 31.6197 135.08 25.6997C120.52 23.4931 106.56 23.6797 93.2 26.2597C74.6733 29.8331 58.22 37.2197 43.84 48.4197C30.26 58.9931 19.6533 71.7764 12.02 86.7697C4.51334 101.503 0.710002 117.67 0.610002 135.27C0.470002 160.343 8.03 182.68 23.29 202.28C30.07 210.99 37.22 218.75 46.4 225.09C76.11 245.6 112.21 251.25 147.31 242.57C162.23 238.876 176.543 231.816 190.25 221.39C193.743 218.736 197.22 215.436 200.68 211.49C204.973 206.61 208.06 202.923 209.94 200.43C216.127 192.223 221.253 182.78 225.32 172.1C225.393 171.907 225.418 171.7 225.393 171.496C225.368 171.292 225.294 171.096 225.177 170.927C225.06 170.758 224.903 170.62 224.721 170.524C224.539 170.429 224.336 170.379 224.13 170.38H177.97C177.577 170.379 177.19 170.485 176.851 170.686C176.511 170.886 176.231 171.174 176.04 171.52C160.2 199.8 127.8 214.17 96.3 205.11C82.5667 201.156 70.8967 193.433 61.29 181.94C46.69 164.49 42.15 140.33 47.57 118.72C49.1367 112.473 50.8433 107.536 52.69 103.91C60.2767 88.9898 71.3667 77.9864 85.96 70.8997C91.3267 68.2931 97.0133 66.4931 103.02 65.4997C110.047 64.3331 116.017 63.8264 120.93 63.9797C127.05 64.1697 131.2 66.0697 136.84 67.9997C153.78 73.8064 166.787 84.4964 175.86 100.07C176.009 100.323 176.222 100.532 176.476 100.678C176.73 100.823 177.018 100.9 177.31 100.9H224.7C224.797 100.899 224.892 100.877 224.979 100.835C225.066 100.792 225.142 100.731 225.201 100.655C225.261 100.579 225.303 100.49 225.323 100.396C225.344 100.302 225.343 100.204 225.32 100.11Z" stroke="#0B0B0B" stroke-width="2"/>
<path d="M1033.93 30.3608C1033.93 30.2216 1033.9 30.0837 1033.85 29.9551C1033.8 29.8265 1033.72 29.7097 1033.62 29.6112C1033.52 29.5128 1033.4 29.4347 1033.28 29.3815C1033.15 29.3282 1033.01 29.3008 1032.87 29.3008H989.99C989.709 29.3008 989.439 29.4125 989.24 29.6112C989.042 29.81 988.93 30.0797 988.93 30.3608V241.641C988.93 241.922 989.042 242.192 989.24 242.39C989.439 242.589 989.709 242.701 989.99 242.701H1032.87C1033.01 242.701 1033.15 242.673 1033.28 242.62C1033.4 242.567 1033.52 242.489 1033.62 242.39C1033.72 242.292 1033.8 242.175 1033.85 242.046C1033.9 241.918 1033.93 241.78 1033.93 241.641V30.3608Z" stroke="#0B0B0B" stroke-width="2"/>
<path d="M348.21 30.6898C348.21 30.3318 348.068 29.9884 347.815 29.7352C347.561 29.4821 347.218 29.3398 346.86 29.3398H304.58C304.222 29.3398 303.879 29.4821 303.625 29.7352C303.372 29.9884 303.23 30.3318 303.23 30.6898V241.35C303.23 241.708 303.372 242.051 303.625 242.304C303.879 242.558 304.222 242.7 304.58 242.7H346.86C347.218 242.7 347.561 242.558 347.815 242.304C348.068 242.051 348.21 241.708 348.21 241.35V30.6898Z" stroke="#0B0B0B" stroke-width="2"/>
<path d="M476.12 30.4609C476.12 30.1744 476.006 29.8997 475.804 29.6972C475.601 29.4946 475.326 29.3809 475.04 29.3809H432.28C431.994 29.3809 431.719 29.4946 431.516 29.6972C431.314 29.8997 431.2 30.1744 431.2 30.4609V241.661C431.2 241.947 431.314 242.222 431.516 242.425C431.719 242.627 431.994 242.741 432.28 242.741H475.04C475.326 242.741 475.601 242.627 475.804 242.425C476.006 242.222 476.12 241.947 476.12 241.661V30.4609Z" stroke="#0B0B0B" stroke-width="2"/>
<path d="M595.26 172.01L487.78 42.3401C487.691 42.2343 487.57 42.1588 487.435 42.1242C487.301 42.0897 487.159 42.098 487.031 42.1479C486.902 42.1977 486.793 42.2867 486.72 42.402C486.646 42.5173 486.611 42.6531 486.62 42.7901C486.793 46.5501 486.883 50.2034 486.89 53.7501C486.93 89.2101 486.933 107.547 486.9 108.76C486.78 113.1 493.22 119.38 496.67 123.4C498.077 125.04 518.257 149.213 557.21 195.92C569.7 210.89 581.91 226.36 595.53 241.5C595.858 241.865 596.258 242.157 596.706 242.357C597.154 242.557 597.639 242.66 598.13 242.66H640.27C640.58 242.66 640.878 242.536 641.097 242.314C641.317 242.093 641.44 241.793 641.44 241.48V30.7101C641.44 30.5744 641.394 30.4465 641.31 30.3501C640.723 29.6701 639.707 29.3301 638.26 29.3301C622.82 29.2967 609.347 29.2901 597.84 29.3101C597.638 29.3101 597.438 29.3502 597.251 29.4281C597.064 29.506 596.894 29.6201 596.751 29.7641C596.608 29.908 596.495 30.0789 596.417 30.2669C596.34 30.455 596.3 30.6565 596.3 30.8601C596.367 67.7867 596.39 113.873 596.37 169.12C596.37 169.187 596.2 170.097 595.86 171.85C595.85 171.915 595.821 171.975 595.777 172.024C595.733 172.073 595.675 172.108 595.612 172.125C595.548 172.142 595.481 172.14 595.419 172.119C595.357 172.099 595.301 172.061 595.26 172.01Z" stroke="#0B0B0B" stroke-width="2"/>
<path d="M819.96 245.179C843.9 245.159 865.74 236.949 883.76 221.409C890.17 215.879 896.38 207.439 900.43 200.719C907.323 189.299 911.693 177.212 913.54 164.459C914.147 160.279 914.427 148.959 914.38 130.499C914.267 79.4324 914.227 46.539 914.26 31.819C914.267 30.0724 913.277 29.2024 911.29 29.209C890.05 29.2624 876.387 29.2924 870.3 29.299C869.979 29.299 869.671 29.4265 869.444 29.6534C869.217 29.8803 869.09 30.1881 869.09 30.509C869.157 57.9557 869.207 92.7623 869.24 134.929C869.253 149.782 868.933 158.799 868.28 161.979C863.69 184.449 843.34 201.009 819.94 201.019C796.53 201.039 776.16 184.499 771.54 162.029C770.887 158.856 770.56 149.842 770.56 134.989C770.54 92.8224 770.547 58.0157 770.58 30.569C770.58 30.4101 770.549 30.2528 770.488 30.106C770.427 29.9592 770.338 29.8258 770.226 29.7134C770.113 29.6011 769.98 29.5119 769.833 29.4511C769.686 29.3903 769.529 29.359 769.37 29.359C763.283 29.359 749.62 29.3457 728.38 29.319C726.393 29.3124 725.403 30.1824 725.41 31.929C725.463 46.649 725.463 79.5424 725.41 130.609C725.383 149.069 725.677 160.389 726.29 164.569C728.15 177.322 732.533 189.406 739.44 200.819C743.5 207.529 749.72 215.959 756.14 221.489C774.18 237.009 796.02 245.189 819.96 245.179Z" stroke="#0B0B0B" stroke-width="2"/>
<path d="M1189.93 241.629C1189.87 241.516 1188.77 240.579 1186.62 238.819C1185.37 237.792 1184.36 236.889 1183.57 236.109C1180.96 233.516 1175.2 228.169 1166.31 220.069C1163.08 217.119 1159.71 213.179 1156.61 210.149C1143.74 197.622 1124.24 178.799 1098.09 153.679C1092.97 148.766 1087.26 143.182 1080.97 136.929C1080.86 136.817 1080.79 136.666 1080.79 136.508C1080.79 136.351 1080.85 136.2 1080.96 136.089C1090.69 126.039 1101 116.879 1111.97 105.469C1115.93 101.342 1123.32 94.1223 1134.14 83.809C1152.77 66.039 1171.42 47.509 1189.82 30.319C1189.87 30.2742 1189.9 30.2183 1189.92 30.157C1189.93 30.0958 1189.93 30.0313 1189.92 29.9702C1189.9 29.9092 1189.87 29.8537 1189.83 29.8096C1189.79 29.7654 1189.73 29.7342 1189.67 29.719C1188.75 29.4723 1187.78 29.3523 1186.75 29.359C1177.24 29.4323 1159.12 29.389 1132.38 29.229C1129.73 29.209 1126.44 28.959 1124.67 30.669C1096.76 57.479 1072.1 80.179 1046.17 105.049C1045.72 105.475 1045.37 105.988 1045.13 106.555C1044.89 107.122 1044.76 107.732 1044.76 108.349V164.539C1044.76 164.766 1044.81 164.992 1044.9 165.201C1044.98 165.411 1045.12 165.601 1045.28 165.759C1052.09 172.232 1061.57 181.349 1073.72 193.109C1078.11 197.349 1081.11 200.216 1082.72 201.709C1089.21 207.719 1096.84 215.829 1103.35 221.899C1111.69 229.666 1118.59 236.102 1124.04 241.209C1125.07 242.182 1126.24 242.666 1127.54 242.659C1151.89 242.566 1171.82 242.626 1187.33 242.839C1187.94 242.846 1188.71 242.679 1189.66 242.339C1189.73 242.315 1189.79 242.277 1189.84 242.226C1189.89 242.176 1189.93 242.116 1189.95 242.048C1189.98 241.981 1189.99 241.909 1189.99 241.837C1189.98 241.764 1189.96 241.694 1189.93 241.629Z" stroke="#0B0B0B" stroke-width="2"/>
<path d="M1230.49 20.6015C1228.45 26.1137 1228.71 32.2185 1231.21 37.5729C1233.7 42.9274 1238.23 47.0929 1243.8 49.153C1249.37 51.2132 1255.52 50.9993 1260.9 48.5584C1266.28 46.1175 1270.45 41.6495 1272.49 36.1373C1274.53 30.6252 1274.27 24.5204 1271.78 19.1659C1269.28 13.8115 1264.75 9.64601 1259.18 7.58583C1253.61 5.52567 1247.46 5.73957 1242.08 8.18049C1236.7 10.6214 1232.53 15.0894 1230.49 20.6015Z" stroke="#0B0B0B" stroke-width="2"/>
<path d="M1260.99 28.3105C1266.58 24.1505 1265.17 15.5005 1258.97 12.7605C1257.62 12.1672 1255.65 11.8639 1253.06 11.8505C1247.25 11.8105 1242.73 11.9472 1239.49 12.2605C1239.19 12.288 1238.92 12.4244 1238.72 12.6428C1238.52 12.8611 1238.41 13.1457 1238.41 13.4405V42.9805C1238.41 43.4261 1238.59 43.8534 1238.91 44.1685C1239.22 44.4835 1239.65 44.6605 1240.1 44.6605H1243.91C1244.23 44.6605 1244.53 44.5352 1244.75 44.312C1244.97 44.0888 1245.1 43.7862 1245.1 43.4705V32.9105C1245.1 32.7008 1245.17 32.4977 1245.3 32.3355C1245.43 32.1733 1245.62 32.0621 1245.82 32.0205C1248.96 31.3805 1256.93 30.9305 1256.66 35.8305C1256.53 38.1505 1256.63 40.5339 1256.97 42.9805C1257.04 43.4777 1257.29 43.9323 1257.67 44.261C1258.05 44.5897 1258.53 44.7706 1259.03 44.7705H1263.43C1263.6 44.7703 1263.77 44.729 1263.92 44.6503C1264.08 44.5715 1264.21 44.4575 1264.31 44.3177C1264.41 44.1779 1264.47 44.0163 1264.5 43.8464C1264.52 43.6764 1264.51 43.503 1264.45 43.3405L1263.79 41.4605C1263.71 41.2354 1263.67 41.0021 1263.67 40.7705C1263.7 36.8805 1264.05 32.7405 1260.92 30.0405C1260.79 29.9331 1260.69 29.7983 1260.63 29.6462C1260.56 29.4941 1260.53 29.3288 1260.54 29.1624C1260.54 28.9961 1260.59 28.833 1260.67 28.6855C1260.74 28.538 1260.86 28.4098 1260.99 28.3105Z" stroke="#0B0B0B" stroke-width="2"/>
<path d="M1245.06 18.3995L1244.93 25.7595C1244.93 25.9488 1245 26.1315 1245.13 26.2681C1245.26 26.4047 1245.44 26.4843 1245.63 26.4895L1253.55 26.6295C1254.07 26.6391 1254.59 26.55 1255.07 26.3672C1255.56 26.1844 1256 25.9115 1256.37 25.5642C1256.75 25.2168 1257.05 24.8018 1257.25 24.3429C1257.46 23.884 1257.57 23.3901 1257.58 22.8895L1257.6 21.7095C1257.62 20.6994 1257.22 19.7232 1256.49 18.9956C1255.76 18.268 1254.76 17.8486 1253.71 17.8295L1245.79 17.6895C1245.7 17.6882 1245.6 17.7055 1245.51 17.7405C1245.43 17.7755 1245.35 17.8274 1245.28 17.8933C1245.21 17.9592 1245.16 18.0379 1245.12 18.1247C1245.08 18.2116 1245.06 18.305 1245.06 18.3995Z" stroke="#0B0B0B" stroke-width="2"/>
<path d="M1279.52 28.3999C1279.52 35.8207 1276.57 42.9375 1271.32 48.1848C1266.08 53.432 1258.96 56.3799 1251.54 56.3799C1244.12 56.3799 1237 53.432 1231.76 48.1848C1226.51 42.9375 1223.56 35.8207 1223.56 28.3999C1223.56 20.9792 1226.51 13.8623 1231.76 8.61507C1237 3.36781 1244.12 0.419922 1251.54 0.419922C1258.96 0.419922 1266.08 3.36781 1271.32 8.61507C1276.57 13.8623 1279.52 20.9792 1279.52 28.3999ZM1230.49 20.602C1228.45 26.1142 1228.71 32.219 1231.2 37.5734C1233.7 42.9279 1238.23 47.0933 1243.8 49.1535C1249.37 51.2137 1255.52 50.9998 1260.9 48.5589C1266.28 46.118 1270.45 41.65 1272.49 36.1378C1274.53 30.6257 1274.27 24.5209 1271.78 19.1664C1269.28 13.812 1264.75 9.6465 1259.18 7.58632C1253.61 5.52616 1247.46 5.74006 1242.08 8.18098C1236.7 10.6219 1232.53 15.0899 1230.49 20.602Z" fill="white"/>
<path d="M1260.99 28.3105C1260.86 28.4098 1260.74 28.538 1260.67 28.6855C1260.59 28.833 1260.54 28.9961 1260.54 29.1624C1260.53 29.3288 1260.56 29.4941 1260.63 29.6462C1260.69 29.7983 1260.79 29.9331 1260.92 30.0405C1264.05 32.7405 1263.7 36.8805 1263.67 40.7705C1263.67 41.0021 1263.71 41.2354 1263.79 41.4605L1264.45 43.3405C1264.51 43.503 1264.52 43.6764 1264.5 43.8464C1264.47 44.0163 1264.41 44.1779 1264.31 44.3177C1264.21 44.4575 1264.08 44.5715 1263.92 44.6503C1263.77 44.729 1263.6 44.7703 1263.43 44.7705H1259.03C1258.53 44.7706 1258.05 44.5897 1257.67 44.261C1257.29 43.9323 1257.04 43.4777 1256.97 42.9805C1256.63 40.5339 1256.53 38.1505 1256.66 35.8305C1256.93 30.9305 1248.96 31.3805 1245.82 32.0205C1245.62 32.0621 1245.43 32.1733 1245.3 32.3355C1245.17 32.4977 1245.1 32.7008 1245.1 32.9105V43.4705C1245.1 43.7862 1244.97 44.0888 1244.75 44.312C1244.53 44.5352 1244.23 44.6605 1243.91 44.6605H1240.1C1239.65 44.6605 1239.22 44.4835 1238.91 44.1685C1238.59 43.8534 1238.41 43.4261 1238.41 42.9805V13.4405C1238.41 13.1457 1238.52 12.8611 1238.72 12.6428C1238.92 12.4244 1239.19 12.288 1239.49 12.2605C1242.73 11.9472 1247.25 11.8105 1253.06 11.8505C1255.65 11.8639 1257.62 12.1672 1258.97 12.7605C1265.17 15.5005 1266.58 24.1505 1260.99 28.3105ZM1245.06 18.4005L1244.93 25.7605C1244.93 25.9498 1245 26.1325 1245.13 26.2691C1245.26 26.4058 1245.44 26.4853 1245.63 26.4905L1253.55 26.6305C1254.07 26.6401 1254.59 26.551 1255.07 26.3682C1255.56 26.1854 1256 25.9125 1256.37 25.5652C1256.75 25.2178 1257.05 24.8028 1257.25 24.3439C1257.46 23.885 1257.57 23.3911 1257.58 22.8905L1257.6 21.7105C1257.62 20.7004 1257.22 19.7243 1256.49 18.9967C1255.76 18.2691 1254.76 17.8496 1253.71 17.8305L1245.79 17.6905C1245.7 17.6892 1245.6 17.7065 1245.51 17.7415C1245.43 17.7765 1245.35 17.8284 1245.28 17.8943C1245.21 17.9603 1245.16 18.0389 1245.12 18.1258C1245.08 18.2126 1245.06 18.306 1245.06 18.4005Z" fill="white"/>
<path d="M225.32 100.11C225.343 100.204 225.344 100.302 225.323 100.396C225.303 100.49 225.261 100.579 225.201 100.655C225.142 100.731 225.066 100.792 224.979 100.835C224.892 100.877 224.797 100.899 224.7 100.9H177.31C177.018 100.9 176.73 100.823 176.476 100.678C176.222 100.532 176.009 100.323 175.86 100.07C166.787 84.4964 153.78 73.8064 136.84 67.9997C131.2 66.0697 127.05 64.1697 120.93 63.9797C116.017 63.8264 110.047 64.3331 103.02 65.4997C97.0133 66.4931 91.3267 68.2931 85.96 70.8997C71.3667 77.9864 60.2767 88.9898 52.69 103.91C50.8433 107.536 49.1367 112.473 47.57 118.72C42.15 140.33 46.69 164.49 61.29 181.94C70.8967 193.433 82.5667 201.156 96.3 205.11C127.8 214.17 160.2 199.8 176.04 171.52C176.231 171.174 176.511 170.886 176.851 170.686C177.19 170.485 177.577 170.379 177.97 170.38H224.13C224.336 170.379 224.539 170.429 224.721 170.524C224.903 170.62 225.06 170.758 225.177 170.927C225.294 171.096 225.368 171.292 225.393 171.496C225.418 171.7 225.393 171.907 225.32 172.1C221.253 182.78 216.127 192.223 209.94 200.43C208.06 202.923 204.973 206.61 200.68 211.49C197.22 215.436 193.743 218.736 190.25 221.39C176.543 231.816 162.23 238.876 147.31 242.57C112.21 251.25 76.11 245.6 46.4 225.09C37.22 218.75 30.07 210.99 23.29 202.28C8.03 182.68 0.470002 160.343 0.610002 135.27C0.710002 117.67 4.51334 101.503 12.02 86.7697C19.6533 71.7764 30.26 58.9931 43.84 48.4197C58.22 37.2197 74.6733 29.8331 93.2 26.2597C106.56 23.6797 120.52 23.4931 135.08 25.6997C174.11 31.6197 207.18 57.5797 222.99 93.4897C224.037 95.8764 224.813 98.0831 225.32 100.11Z" fill="white"/>
<path d="M1032.87 29.3008H989.99C989.405 29.3008 988.93 29.7754 988.93 30.3608V241.641C988.93 242.226 989.405 242.701 989.99 242.701H1032.87C1033.46 242.701 1033.93 242.226 1033.93 241.641V30.3608C1033.93 29.7754 1033.46 29.3008 1032.87 29.3008Z" fill="white"/>
<path d="M346.86 29.3398H304.58C303.834 29.3398 303.23 29.9443 303.23 30.6898V241.35C303.23 242.095 303.834 242.7 304.58 242.7H346.86C347.606 242.7 348.21 242.095 348.21 241.35V30.6898C348.21 29.9443 347.606 29.3398 346.86 29.3398Z" fill="white"/>
<path d="M475.04 29.3809H432.28C431.684 29.3809 431.2 29.8644 431.2 30.4609V241.661C431.2 242.257 431.684 242.741 432.28 242.741H475.04C475.636 242.741 476.12 242.257 476.12 241.661V30.4609C476.12 29.8644 475.636 29.3809 475.04 29.3809Z" fill="white"/>
<path d="M595.86 171.85C596.2 170.097 596.37 169.187 596.37 169.12C596.39 113.873 596.367 67.7867 596.3 30.8601C596.3 30.6565 596.34 30.455 596.417 30.2669C596.495 30.0789 596.608 29.908 596.751 29.7641C596.894 29.6201 597.064 29.506 597.251 29.4281C597.438 29.3502 597.638 29.3101 597.84 29.3101C609.347 29.2901 622.82 29.2967 638.26 29.3301C639.707 29.3301 640.723 29.6701 641.31 30.3501C641.394 30.4465 641.44 30.5744 641.44 30.7101V241.48C641.44 241.793 641.317 242.093 641.097 242.314C640.878 242.536 640.58 242.66 640.27 242.66H598.13C597.639 242.66 597.154 242.557 596.706 242.357C596.258 242.157 595.858 241.865 595.53 241.5C581.91 226.36 569.7 210.89 557.21 195.92C518.257 149.213 498.077 125.04 496.67 123.4C493.22 119.38 486.78 113.1 486.9 108.76C486.933 107.547 486.93 89.2101 486.89 53.7501C486.883 50.2034 486.793 46.5501 486.62 42.7901C486.611 42.6531 486.646 42.5173 486.72 42.402C486.793 42.2867 486.902 42.1977 487.031 42.1479C487.159 42.098 487.301 42.0897 487.435 42.1242C487.57 42.1588 487.691 42.2343 487.78 42.3401L595.26 172.01C595.301 172.061 595.357 172.099 595.419 172.119C595.481 172.14 595.548 172.142 595.612 172.125C595.675 172.108 595.733 172.073 595.777 172.024C595.821 171.975 595.85 171.915 595.86 171.85Z" fill="white"/>
<path d="M819.94 201.021C843.34 201.011 863.69 184.451 868.28 161.981C868.933 158.801 869.253 149.784 869.24 134.931C869.207 92.7643 869.157 57.9576 869.09 30.511C869.09 30.1901 869.217 29.8823 869.444 29.6554C869.671 29.4285 869.979 29.301 870.3 29.301C876.387 29.2943 890.05 29.2643 911.29 29.211C913.277 29.2043 914.267 30.0743 914.26 31.821C914.227 46.541 914.267 79.4343 914.38 130.501C914.427 148.961 914.147 160.281 913.54 164.461C911.693 177.214 907.323 189.301 900.43 200.721C896.38 207.441 890.17 215.881 883.76 221.411C865.74 236.951 843.9 245.161 819.96 245.181C796.02 245.191 774.18 237.011 756.14 221.491C749.72 215.961 743.5 207.531 739.44 200.821C732.533 189.408 728.15 177.324 726.29 164.571C725.677 160.391 725.383 149.071 725.41 130.611C725.463 79.5443 725.463 46.651 725.41 31.931C725.403 30.1843 726.393 29.3143 728.38 29.321C749.62 29.3476 763.283 29.361 769.37 29.361C769.529 29.361 769.686 29.3923 769.833 29.4531C769.98 29.5139 770.113 29.603 770.226 29.7154C770.338 29.8277 770.427 29.9611 770.488 30.1079C770.549 30.2547 770.58 30.4121 770.58 30.571C770.547 58.0176 770.54 92.8243 770.56 134.991C770.56 149.844 770.887 158.858 771.54 162.031C776.16 184.501 796.53 201.041 819.94 201.021Z" fill="white"/>
<path d="M1189.66 242.341C1188.71 242.681 1187.94 242.848 1187.33 242.841C1171.82 242.628 1151.89 242.568 1127.54 242.661C1126.24 242.668 1125.07 242.184 1124.04 241.211C1118.59 236.104 1111.69 229.668 1103.35 221.901C1096.84 215.831 1089.21 207.721 1082.72 201.711C1081.11 200.218 1078.11 197.351 1073.72 193.111C1061.57 181.351 1052.09 172.234 1045.28 165.761C1045.12 165.602 1044.98 165.413 1044.9 165.203C1044.81 164.994 1044.76 164.768 1044.76 164.541V108.351C1044.76 107.734 1044.89 107.124 1045.13 106.557C1045.37 105.99 1045.72 105.477 1046.17 105.051C1072.1 80.1809 1096.76 57.4809 1124.67 30.6709C1126.44 28.9609 1129.73 29.2109 1132.38 29.2309C1159.12 29.3909 1177.24 29.4343 1186.75 29.3609C1187.78 29.3543 1188.75 29.4743 1189.67 29.7209C1189.73 29.7361 1189.79 29.7674 1189.83 29.8115C1189.87 29.8557 1189.9 29.9111 1189.92 29.9722C1189.93 30.0332 1189.93 30.0977 1189.92 30.159C1189.9 30.2203 1189.87 30.2762 1189.82 30.3209C1171.42 47.5109 1152.77 66.0409 1134.14 83.8109C1123.32 94.1243 1115.93 101.344 1111.97 105.471C1101 116.881 1090.69 126.041 1080.96 136.091C1080.85 136.202 1080.79 136.353 1080.79 136.51C1080.79 136.668 1080.86 136.819 1080.97 136.931C1087.26 143.184 1092.97 148.768 1098.09 153.681C1124.24 178.801 1143.74 197.624 1156.61 210.151C1159.71 213.181 1163.08 217.121 1166.31 220.071C1175.2 228.171 1180.96 233.518 1183.57 236.111C1184.36 236.891 1185.37 237.794 1186.62 238.821C1188.77 240.581 1189.87 241.518 1189.93 241.631C1189.96 241.695 1189.98 241.766 1189.99 241.839C1189.99 241.911 1189.98 241.983 1189.95 242.05C1189.93 242.118 1189.89 242.178 1189.84 242.228C1189.79 242.279 1189.73 242.317 1189.66 242.341Z" fill="white"/>
</g>
<defs>
<clipPath id="clip0_165_79">
<rect width="1280" height="247" fill="white"/>
</clipPath>
</defs>
</svg>
